<?xml version="1.0" encoding="iso-8859-1" standalone="no"?> 
<?xml-stylesheet href="latex-gOaQlt.css" type="text/css"?> 
<svg xmlns="http://www.w3.org/2000/svg" xmlns:xlink="http://www.w3.org/1999/xlink" width="171.11646pt" height="28.85272pt" viewBox="-85.55823 -14.42636 171.11646 28.85272 "> 
<g transform="translate(0, 14.42636 ) scale(1,-1) translate(0,14.42636 )"> 
                          <g>
 <g stroke="rgb(0.0%,0.0%,0.0%)">
 <g fill="rgb(0.0%,0.0%,0.0%)">
 <g stroke-width="0.4pt">
 <g>
 <path d=" M  -85.35823 0.0 L  -56.90549 0.0 C  -56.90549 -7.8571 -50.53622 -14.22636 -42.67912 -14.22636 C  -34.82202 -14.22636 -28.45276 -7.8571 -28.45276 0.0 M  -28.45274 0.0 L  28.45274 0.0 C  28.45274 7.8571 34.822 14.22636 42.67911 14.22636 C  50.53621 14.22636 56.90547 7.8571 56.90547 0.0 M  56.90549 0.0 L  84.89824 0.0  " style="fill:none"/>
 <g>
 <g transform="matrix(1.0,0.0,0.0,1.0,84.89824,0.0)">
 <g>
 <g stroke-width="0.31999pt">
 <g stroke-dasharray="none" stroke-dashoffset="0.0pt">
 <g stroke-linecap="round">
 <g stroke-linejoin="round">
 <path d=" M  -1.19998 1.59998 C  -1.09998 0.99998 0.0 0.09999 0.29999 0.0 C  0.0 -0.09999 -1.09998 -0.99998 -1.19998 -1.59998  " style="fill:none"/>
 </g>
 </g>
 </g>
 </g>
 </g>
  </g>
 </g>
 <path d=" M  -42.67911 0.0 M  -39.83385 0.0 C  -39.83385 1.57141 -41.1077 2.84526 -42.67911 2.84526 C  -44.25052 2.84526 -45.52437 1.57141 -45.52437 0.0 C  -45.52437 -1.57141 -44.25052 -2.84526 -42.67911 -2.84526 C  -41.1077 -2.84526 -39.83385 -1.57141 -39.83385 0.0 Z M  -42.67911 0.0  " />
 <path d=" M  42.67911 0.0 M  45.52437 0.0 C  45.52437 1.57141 44.25052 2.84526 42.67911 2.84526 C  41.1077 2.84526 39.83385 1.57141 39.83385 0.0 C  39.83385 -1.57141 41.1077 -2.84526 42.67911 -2.84526 C  44.25052 -2.84526 45.52437 -1.57141 45.52437 0.0 Z M  42.67911 0.0  " />
 </g>
 </g>
 </g>
 </g>
 </g>
 
                                                   </g> 
</svg> 
